# xmcd
#
# Track frame offsets: 
#        150
#        28351
#        41256
#        53138
#        72647
#        82896
#        96001
#        106029
#        120157
#        131344
#
# Disc length: 1934 seconds
#
# Revision: 0
# Processed by: cddbd v1.5.2PL0 Copyright (c) Steve Scherf et al.
# Submitted via: ExactAudioCopy v0.99pb4
#
DISCID=76078c0a
DTITLE=Ray Charles - Ray Charles [St. Clair] CD2
DYEAR=2007
DGENRE=Blues
TTITLE0=I Got a Woman [Live]
TTITLE1=Baby Won't You Please Come Home [Live] 
TTITLE2=Can't You See Darling
TTITLE3=Talkin' About You [Live]
TTITLE4=Sittin' on Top of the World 
TTITLE5=Don't Put All Your Dreams in One Basket [Live]
TTITLE6=I'm Movin' On [Live] 
TTITLE7=Kiss Me Baby [Live] 
TTITLE8=You Be My Baby [Live] 
TTITLE9=This Love of Mine
EXTD=
EXTT0=
EXTT1=
EXTT2=
EXTT3=
EXTT4=
EXTT5=
EXTT6=
EXTT7=
EXTT8=
EXTT9=
PLAYORDER=
